<?xml version="1.0" encoding="UTF-8"?>
<svg id="Capa_1" data-name="Capa 1" xmlns="http://www.w3.org/2000/svg" xmlns:xlink="http://www.w3.org/1999/xlink" viewBox="0 0 1170.67 1170.67">
  <defs>
    <style>
      .cls-1 {
        fill: #fff;
      }

      .cls-2 {
        fill: none;
      }

      .cls-3 {
        fill: #2563eb;
      }
    </style>
    <clipPath id="clippath">
      <circle class="cls-2" cx="558.18" cy="597.39" r="492"/>
    </clipPath>
  </defs>
  <g class="cls-4">
    <circle class="cls-3" cx="558.18" cy="597.39" r="492"/>
    <path class="cls-1" d="M448.98,469.23c-20.95-33.69-46.09-62.89-72.81-84.7,26.12-6.73,49.23-22.15,65.57-44,.01.07.03.15.04.22.79,4.6,1.84,9.28,3.12,13.9.12.48.27.95.46,1.4,2.41,5.82,4.51,11.79,6.24,17.73,9.97,33.91,8.84,68.35-2.62,95.46Z"/>
    <path class="cls-1" d="M494.44,802.88c-8.01,0-15.29,3.16-20.64,8.32,4.33-1.83,9.09-2.83,14.08-2.83,17.9,0,32.76,12.94,35.76,29.97.36-1.85.55-3.76.55-5.72,0-16.42-13.32-29.74-29.75-29.74ZM1044.82,656.16c-2.85,5.38-5.8,10.69-8.87,15.93-.5.87-1.01,1.74-1.52,2.61-.08.14-.17.27-.25.41-31.49,53.02-73.76,98.89-123.78,134.6.55-3.3,1.14-6.59,1.76-9.87,8.86-46.35,24.95-90.13,47.06-130.13.25-1.38.49-2.76.71-4.14h-.02c-40.62,0-79.96,5.48-117.33,15.74,37.32-20.75,77.95-36.27,120.91-45.54-48.69-21.51-101.99-34.48-158.02-37.03,6.78-.31,13.6-.47,20.46-.47,48.53,0,95.24,7.82,138.93,22.28,6.94,2.28,13.81,4.74,20.59,7.38.34-.48.67-.96,1.02-1.43-6.87-5.93-13.92-11.64-21.15-17.13-74.27-56.48-166.93-90-267.42-90-77.6,0-150.53,19.99-213.93,55.11-54.57,30.21-102.08,71.63-139.41,121.16-7.93,10.51-15.39,21.38-22.36,32.58-1.71,2.73-3.38,5.49-5.02,8.26-25.7,43.36-44.19,91.48-53.84,142.73-2.48-2.6-4.93-5.23-7.34-7.9-65.3-72.23-105.08-167.99-105.08-273.04,0-82.64,24.62-159.53,66.91-223.75,4.89-7.42,10.01-14.67,15.37-21.74,1.17-1.56,2.35-3.1,3.56-4.63,5.03-6.47,10.26-12.78,15.67-18.92.46-.53.92-1.05,1.39-1.57,6.36,9.98,14.29,18.85,23.45,26.26,5.29,4.3,10.98,8.1,17.02,11.36,11.33,6.11,23.87,10.28,37.16,12.06h.03c4.8.65,9.69.98,14.66.98,1.54,0,3.08-.03,4.6-.1-1.87-1.24-3.71-2.43-5.58-3.57,17.18-4.56,32.41-13.42,44.13-26.68,14.39-16.29,21.55-37,22.02-59.31.2-9.25-.74-18.77-2.81-28.36-.1-.5-.21-.99-.33-1.49.35.53.7,1.06,1.05,1.6,15.3,2.37,30.94,7.35,46.17,14.87.13-2.12.19-4.25.19-6.4,0-22.07-6.53-42.61-17.78-59.8-19.53-29.89-53.29-49.64-91.66-49.64-1.97,0-3.93.05-5.87.16h0c-6.62.35-13.08,1.28-19.34,2.77-1.51.35-3,.73-4.48,1.15-2.64.74-5.24,1.58-7.79,2.51-13.96,8.07-27.5,16.8-40.56,26.16h-.01c-16.43,11.76-32.11,24.49-46.97,38.12-18.63,17.06-35.96,35.53-51.82,55.23-68.89,85.56-110.12,194.33-110.12,312.73,0,162.46,77.64,306.79,197.83,397.9,20.32,15.41,41.85,29.29,64.44,41.48,7.04,3.81,14.18,7.45,21.42,10.91,13.54,6.49,27.41,12.39,41.59,17.65,31.55,11.72,64.61,20.34,98.8,25.48-28.02-15.08-51.07-37.14-66.34-63.59-3.31-5.73-6.26-11.68-8.81-17.8-5.01-12.91-7.78-27.09-7.78-41.98,0-36.62,16.76-68.98,42.4-88.53.04.06.07.11.11.17.07-.06.14-.11.22-.17.05-.04.1-.08.15-.11l-.53-.53c-2.53-4.32-4.72-8.87-6.54-13.61-1.34-3.49-2.47-7.08-3.39-10.77-.01,0-.01-.03-.01-.05-1.81-7.24-2.77-14.83-2.77-22.64,0-.48,0-.97,0-1.46,0-.47.02-.93.03-1.4.31-10.29,2.29-20.17,5.67-29.36,1.51-4.1,3.29-8.07,5.34-11.88,1.78-3.32,3.76-6.52,5.92-9.58,8.28-11.79,19.23-21.56,31.97-28.47,1.75-.95,3.53-1.84,5.34-2.68,11.9-5.49,25.15-8.55,39.11-8.55,8.68,0,17.09,1.18,25.06,3.4.55.15,1.09.31,1.63.47,26.79,7.98,48.55,27.66,59.33,53.12,4.74,11.18,7.36,23.48,7.36,36.39,0,29.77-13.93,56.29-35.62,73.39-15.47,12.19-34.89,19.59-56.02,19.98,0,.03,27.66,5.39,42.38,5.65.24.01.47.01.7.02.55,0,1.09,0,1.64.02h2.56c.44-.01.87-.01,1.3-.01.21,0,.41,0,.62,0,.39-.01.78-.02,1.18-.02.38-.01.76-.02,1.13-.03.32,0,.64-.02.96-.03.43-.01.86-.03,1.29-.05.37-.01.74-.03,1.11-.04,1.51-.07,3.01-.16,4.51-.26.27-.02.53-.04.79-.06.84-.06,1.68-.12,2.52-.19,1.71-.15,3.4-.32,5.09-.52.11-.01.21-.02.31-.03,50.6-5.81,94.47-31.54,122.08-68.39,19.42,25.92,30.79,57.35,30.79,91.22,0,54.37-29.3,102.43-74.15,131.55,91.5-21.31,173.33-67.81,237.79-131.79,70.04-69.49,119.58-159.63,138.75-260.52.37-1.96.73-3.92,1.08-5.89.65-3.66,1.26-7.34,1.83-11.03.72-4.62,1.36-9.25,1.95-13.91,1.15-9.15,2.05-18.37,2.7-27.67-3.51,7.69-7.24,15.26-11.18,22.7ZM329.44,267.87c12.65-9.66,30.75-7.23,40.41,5.43,5.45,7.14,7.05,16.01,5.14,24.12-.58-6-2.79-11.91-6.71-17.04-10.13-13.28-28.25-16.87-42.5-9.2,1.11-1.18,2.33-2.29,3.66-3.31ZM429.17,806.96c-1.52,5.65-2.52,11.4-3.01,17.18-.04-.02-.08-.04-.12-.06-1.6-.86-3.2-1.77-4.78-2.72-.72-.44-1.49-.92-2.34-1.46-.58-.37-1.15-.74-1.7-1.11-17.51-11.64-30.75-27.91-37.28-45.81l-.29-.78c-.1-.31-.21-.77.15-1.27.29-.42.8-.69,1.28-.69.26,0,.52.08.79.24,7.5,4.39,15.61,7.78,24.09,10.05.59.16,1.18.31,1.77.45,1.07.27,2.16.52,3.22.75,6.68,1.42,13.51,2.14,20.3,2.14,2.51,0,5.04-.1,7.55-.3-4.19,7.31-7.42,15.14-9.63,23.39ZM494.44,802.88c-8.01,0-15.29,3.16-20.64,8.32,4.33-1.83,9.09-2.83,14.08-2.83,17.9,0,32.76,12.94,35.76,29.97.36-1.85.55-3.76.55-5.72,0-16.42-13.32-29.74-29.75-29.74Z"/>
  </g>
</svg>